<svg width="96" height="96" viewBox="0 0 96 96" fill="none" xmlns="http://www.w3.org/2000/svg">
<g clip-path="url(#clip0_3989_14887)">
<g clip-path="url(#clip1_3989_14887)">
<path d="M41 41C44.866 44.866 51.134 44.866 55 41.0001C58.866 37.1341 58.866 30.866 55 27C51.134 23.1341 44.866 23.1341 41 27C37.134 30.866 37.134 37.134 41 41Z" fill="url(#paint0_linear_3989_14887)"/>
<path d="M41 41C44.866 44.866 51.134 44.866 55 41.0001C58.866 37.1341 58.866 30.866 55 27C51.134 23.1341 44.866 23.1341 41 27C37.134 30.866 37.134 37.134 41 41Z" fill="url(#paint1_radial_3989_14887)"/>
<path d="M41 41C44.866 44.866 51.134 44.866 55 41.0001C58.866 37.1341 58.866 30.866 55 27C51.134 23.1341 44.866 23.1341 41 27C37.134 30.866 37.134 37.134 41 41Z" fill="url(#paint2_linear_3989_14887)"/>
<path d="M55 55C51.134 51.134 44.866 51.134 41 54.9999C37.134 58.8659 37.134 65.134 41 69C44.866 72.8659 51.134 72.8659 55 69C58.866 65.134 58.866 58.866 55 55Z" fill="url(#paint3_linear_3989_14887)"/>
<path d="M55 55C51.134 51.134 44.866 51.134 41 54.9999C37.134 58.8659 37.134 65.134 41 69C44.866 72.8659 51.134 72.8659 55 69C58.866 65.134 58.866 58.866 55 55Z" fill="url(#paint4_linear_3989_14887)"/>
<path d="M55 55C51.134 51.134 44.866 51.134 41 54.9999C37.134 58.8659 37.134 65.134 41 69C44.866 72.8659 51.134 72.8659 55 69C58.866 65.134 58.866 58.866 55 55Z" fill="url(#paint5_radial_3989_14887)"/>
<path d="M41 55C44.866 58.866 51.134 58.866 55 55C58.866 51.134 58.866 44.866 55 41C51.134 37.134 44.866 37.134 41 41C37.134 44.866 37.134 51.134 41 55Z" fill="url(#paint6_linear_3989_14887)"/>
<path d="M41 55C44.866 58.866 51.134 58.866 55 55C58.866 51.134 58.866 44.866 55 41C51.134 37.134 44.866 37.134 41 41C37.134 44.866 37.134 51.134 41 55Z" fill="url(#paint7_radial_3989_14887)"/>
<path d="M41 55C44.866 58.866 51.134 58.866 55 55C58.866 51.134 58.866 44.866 55 41C51.134 37.134 44.866 37.134 41 41C37.134 44.866 37.134 51.134 41 55Z" fill="url(#paint8_radial_3989_14887)"/>
<path d="M27 41L41 27C37.134 30.866 37.134 37.1341 41 41.0001C44.866 44.866 44.866 51.1341 41 55.0001C37.134 58.866 30.866 58.866 27 55C23.134 51.134 23.134 44.866 27 41Z" fill="url(#paint9_linear_3989_14887)"/>
<path d="M27 41L41 27C37.134 30.866 37.134 37.1341 41 41.0001C44.866 44.866 44.866 51.1341 41 55.0001C37.134 58.866 30.866 58.866 27 55C23.134 51.134 23.134 44.866 27 41Z" fill="url(#paint10_radial_3989_14887)"/>
<path d="M69 55L55 69C58.866 65.134 58.866 58.8659 55 54.9999C51.134 51.134 51.134 44.8659 55 40.9999C58.866 37.134 65.134 37.134 69 41C72.866 44.866 72.866 51.134 69 55Z" fill="url(#paint11_linear_3989_14887)"/>
</g>
</g>
<defs>
<linearGradient id="paint0_linear_3989_14887" x1="39" y1="28.7501" x2="57.5" y2="36.5001" gradientUnits="userSpaceOnUse">
<stop stop-color="#0C74A1"/>
<stop offset="0.468152" stop-color="#1384B1"/>
<stop offset="1" stop-color="#16BBDA"/>
</linearGradient>
<radialGradient id="paint1_radial_3989_14887" cx="0" cy="0" r="1" gradientUnits="userSpaceOnUse" gradientTransform="translate(48 48.0001) rotate(-90) scale(14.75 14.75)">
<stop offset="0.456329" stop-color="#0057AA"/>
<stop offset="1" stop-color="#1384B1" stop-opacity="0"/>
</radialGradient>
<linearGradient id="paint2_linear_3989_14887" x1="48.5" y1="31.0001" x2="37.25" y2="36.0001" gradientUnits="userSpaceOnUse">
<stop stop-color="#1384B1" stop-opacity="0"/>
<stop offset="1" stop-color="#004695"/>
</linearGradient>
<linearGradient id="paint3_linear_3989_14887" x1="58.25" y1="63.7499" x2="38.5" y2="59.4999" gradientUnits="userSpaceOnUse">
<stop stop-color="#06517B"/>
<stop offset="0.508523" stop-color="#09638E"/>
<stop offset="1" stop-color="#0C74A1"/>
</linearGradient>
<linearGradient id="paint4_linear_3989_14887" x1="50.5" y1="61.9999" x2="58.75" y2="59.9999" gradientUnits="userSpaceOnUse">
<stop stop-color="#09638E" stop-opacity="0"/>
<stop offset="1" stop-color="#003580"/>
</linearGradient>
<radialGradient id="paint5_radial_3989_14887" cx="0" cy="0" r="1" gradientUnits="userSpaceOnUse" gradientTransform="translate(48 47.9999) rotate(90) scale(18 18)">
<stop offset="0.423337" stop-color="#003580"/>
<stop offset="1" stop-color="#09638E" stop-opacity="0"/>
</radialGradient>
<linearGradient id="paint6_linear_3989_14887" x1="46.25" y1="38.75" x2="46.5" y2="58.25" gradientUnits="userSpaceOnUse">
<stop stop-color="#43E5CA"/>
<stop offset="0.371719" stop-color="#26CFE8"/>
<stop offset="1" stop-color="#1384B1"/>
</linearGradient>
<radialGradient id="paint7_radial_3989_14887" cx="0" cy="0" r="1" gradientUnits="userSpaceOnUse" gradientTransform="translate(62 48) rotate(90) scale(16)">
<stop offset="0.399827" stop-color="#09638E"/>
<stop offset="1" stop-color="#119FC5" stop-opacity="0"/>
</radialGradient>
<radialGradient id="paint8_radial_3989_14887" cx="0" cy="0" r="1" gradientUnits="userSpaceOnUse" gradientTransform="translate(34 48) rotate(90) scale(17)">
<stop offset="0.399827" stop-color="#09638E"/>
<stop offset="1" stop-color="#119FC5" stop-opacity="0"/>
</radialGradient>
<linearGradient id="paint9_linear_3989_14887" x1="31.25" y1="37" x2="45.75" y2="51.5" gradientUnits="userSpaceOnUse">
<stop stop-color="#B6F6C7"/>
<stop offset="0.277847" stop-color="#43E5CA"/>
<stop offset="1" stop-color="#26CFE8"/>
</linearGradient>
<radialGradient id="paint10_radial_3989_14887" cx="0" cy="0" r="1" gradientUnits="userSpaceOnUse" gradientTransform="translate(29.75 37) rotate(65.4495) scale(22.2626 22.4074)">
<stop offset="0.585411" stop-color="#2BDABE" stop-opacity="0"/>
<stop offset="1" stop-color="#119FC5"/>
</radialGradient>
<linearGradient id="paint11_linear_3989_14887" x1="55.5" y1="39" x2="70.25" y2="53.75" gradientUnits="userSpaceOnUse">
<stop stop-color="#9FF2E4"/>
<stop offset="0.266186" stop-color="#2BDABE"/>
<stop offset="0.620556" stop-color="#16BBDA"/>
<stop offset="1" stop-color="#1384B1"/>
</linearGradient>
<clipPath id="clip0_3989_14887">
<rect width="48" height="48" fill="white" transform="translate(24 24)"/>
</clipPath>
<clipPath id="clip1_3989_14887">
<rect width="48" height="48" fill="white" transform="translate(24 24)"/>
</clipPath>
</defs>
</svg>
